HIERARCHY
ROOT Hips
{
	OFFSET 0.000000 0.000000 0.000000
	CHANNELS 6 Xposition Yposition Zposition Xrotation Yrotation Zrotation
	JOINT LeftUpLeg_virtual
	{
		OFFSET 0.000000 0.000000 0.000000
		CHANNELS 3 Xrotation Yrotation Zrotation
		JOINT LeftUpLeg
		{
			OFFSET 10.205400 -3.823500 0.155100
			CHANNELS 3 Xrotation Yrotation Zrotation
			JOINT LeftLeg
			{
				OFFSET 0.708757 -12.982077 0.567790
				CHANNELS 3 Xrotation Yrotation Zrotation
				JOINT LeftFoot
				{
					OFFSET -0.708756 -10.717838 -2.184338
					CHANNELS 3 Xrotation Yrotation Zrotation
					JOINT LeftToeBase
					{
						OFFSET 0.108149 -7.191104 7.560241
						CHANNELS 3 Xrotation Yrotation Zrotation
						JOINT LeftToe_End
						{
							OFFSET 0.070230 0.081724 4.490308
							CHANNELS 3 Xrotation Yrotation Zrotation
							End Site
							{
								OFFSET 0 0 0
							}
						}
					}
				}
			}
		}
	}
	JOINT RightUpLeg_virtual
	{
		OFFSET 0.000000 0.000000 0.000000
		CHANNELS 3 Xrotation Yrotation Zrotation
		JOINT RightUpLeg
		{
			OFFSET -10.205400 -3.823500 0.005500
			CHANNELS 3 Xrotation Yrotation Zrotation
			JOINT RightLeg
			{
				OFFSET -0.708756 -12.982134 0.610632
				CHANNELS 3 Xrotation Yrotation Zrotation
				JOINT RightFoot
				{
					OFFSET 0.708754 -10.717769 -1.945823
					CHANNELS 3 Xrotation Yrotation Zrotation
					JOINT RightToeBase
					{
						OFFSET -0.108140 -7.191069 7.372968
						CHANNELS 3 Xrotation Yrotation Zrotation
						JOINT RightToe_End
						{
							OFFSET -0.070227 0.081735 4.479403
							CHANNELS 3 Xrotation Yrotation Zrotation
							End Site
							{
								OFFSET 0 0 0
							}
						}
					}
				}
			}
		}
	}
	JOINT Spine_virtual
	{
		OFFSET 0.000000 0.000000 0.000000
		CHANNELS 3 Xrotation Yrotation Zrotation
		JOINT Spine
		{
			OFFSET 0.000000 6.876099 0.125700
			CHANNELS 3 Xrotation Yrotation Zrotation
			JOINT Spine1
			{
				OFFSET 0.000000 5.730043 0.104720
				CHANNELS 3 Xrotation Yrotation Zrotation
				JOINT Spine1_split
				{
					OFFSET 0.000000 5.730043 0.104720
					CHANNELS 3 Xrotation Yrotation Zrotation
					JOINT Spine2
					{
						OFFSET 0.000000 5.730043 0.104720
						CHANNELS 3 Xrotation Yrotation Zrotation
						JOINT Neck_virtual
						{
							OFFSET 0.000000 0.000000 0.000000
							CHANNELS 3 Xrotation Yrotation Zrotation
							JOINT Neck
							{
								OFFSET 0.000000 10.314075 0.188496
								CHANNELS 3 Xrotation Yrotation Zrotation
								JOINT Head
								{
									OFFSET 0.000000 7.643700 -2.377400
									CHANNELS 3 Xrotation Yrotation Zrotation
									JOINT HeadTop_End
									{
										OFFSET 0.000000 43.788605 -13.619600
										CHANNELS 3 Xrotation Yrotation Zrotation
										End Site
										{
											OFFSET 0 0 0
										}
									}
								}
							}
						}
						JOINT LeftShoulder_virtual
						{
							OFFSET 0.000000 0.000000 0.000000
							CHANNELS 3 Xrotation Yrotation Zrotation
							JOINT LeftShoulder
							{
								OFFSET 2.196100 4.412489 0.087492
								CHANNELS 3 Xrotation Yrotation Zrotation
								JOINT LeftShoulder_split
								{
									OFFSET 2.196100 4.412489 0.087492
									CHANNELS 3 Xrotation Yrotation Zrotation
									JOINT LeftArm
									{
										OFFSET 8.771219 -2.981674 -0.026999
										CHANNELS 3 Xrotation Yrotation Zrotation
										JOINT LeftForeArm
										{
											OFFSET 8.512804 0.000000 -0.000000
											CHANNELS 3 Xrotation Yrotation Zrotation
											JOINT LeftHand
											{
												OFFSET 18.484802 0.000000 -0.000000
												CHANNELS 3 Xrotation Yrotation Zrotation
												End Site
												{
													OFFSET 0 0 0
												}
											}
										}
									}
								}
							}
						}
						JOINT RightShoulder_virtual
						{
							OFFSET 0.000000 0.000000 0.000000
							CHANNELS 3 Xrotation Yrotation Zrotation
							JOINT RightShoulder
							{
								OFFSET -2.196100 4.412496 0.070690
								CHANNELS 3 Xrotation Yrotation Zrotation
								JOINT RightShoulder_split
								{
									OFFSET -2.196100 4.412496 0.070690
									CHANNELS 3 Xrotation Yrotation Zrotation
									JOINT RightArm
									{
										OFFSET -8.771282 -2.981682 -0.094208
										CHANNELS 3 Xrotation Yrotation Zrotation
										JOINT RightForeArm
										{
											OFFSET -8.494598 0.000000 0.000000
											CHANNELS 3 Xrotation Yrotation Zrotation
											JOINT RightHand
											{
												OFFSET -18.483803 0.000000 0.000001
												CHANNELS 3 Xrotation Yrotation Zrotation
												End Site
												{
													OFFSET 0 0 0
												}
											}
										}
									}
								}
							}
						}
					}
				}
			}
		}
	}
}
MOTION
Frames: 9
Frame Time: 0.03333333
0.092685 33.773464 -0.761829 0.000000 0.000000 0.000000 -4.120609 -1.656887 0.450456 -4.103202 7.618285 7.994272 22.591260 7.901300 -0.348216 -12.393881 6.544487 -8.957025 0.926581 0.000011 0.000002 0.000000 0.000000 0.000000 -4.120609 -1.656887 0.450456 -0.202912 -8.992598 -9.334195 23.291783 -7.383862 3.296882 -16.940203 -6.476994 7.316978 -1.455117 0.000006 0.000001 0.000000 0.000000 0.000000 -4.120609 -1.656887 0.450456 3.457414 1.688183 -2.305920 0.710881 0.526838 -0.263051 0.000000 0.000000 0.000000 0.000000 0.000000 0.000000 0.710199 0.523097 -0.267070 2.609734 -0.754816 0.156819 18.950507 -7.303244 0.624142 0.000000 0.000000 0.000000 0.710199 0.523097 -0.267070 2.730605 -4.471838 -12.384146 0.000000 0.000000 0.000000 -6.603779 -10.273104 -60.669169 -0.000013 -16.775182 -0.000012 0.000000 0.000000 0.000000 0.710199 0.523097 -0.267070 1.996590 1.476386 14.937916 0.000000 0.000000 0.000000 -2.025624 7.814286 63.299960 -0.000017 12.108138 0.000015 0.000000 0.000000 0.000000 
0.014193 33.739548 -0.931253 0.000000 0.000000 0.000000 -4.505622 -0.940847 0.630021 -4.757095 7.472254 8.037034 23.432972 7.928189 -0.242713 -12.675467 5.825905 -9.026830 1.061978 0.000001 -0.000000 0.000000 0.000000 0.000000 -4.505622 -0.940847 0.630021 -0.238698 -8.807666 -8.997545 24.374783 -7.459345 2.820885 -17.565785 -7.435945 7.362889 -1.463729 0.000007 -0.000001 0.000000 0.000000 0.000000 -4.505622 -0.940847 0.630021 3.851086 2.077482 -2.194323 0.779252 0.636650 -0.214313 0.000000 0.000000 0.000000 0.000000 0.000000 0.000000 0.779022 0.632011 -0.219524 2.504434 -0.875464 0.156875 18.776644 -8.477598 0.864273 0.000000 0.000000 0.000000 0.779022 0.632011 -0.219524 2.725930 -4.533559 -12.333787 0.000000 0.000000 0.000000 -6.245862 -8.768379 -60.756589 -0.000001 -15.406540 0.000001 0.000000 0.000000 0.000000 0.779022 0.632011 -0.219524 1.997986 1.881700 14.910749 0.000000 0.000000 0.000000 -3.306481 8.365080 62.900756 0.000004 13.174785 -0.000023 0.000000 0.000000 0.000000 
-0.053154 33.717533 -1.087198 0.000000 0.000000 0.000000 -4.919162 -0.262750 0.768060 -5.267359 7.326548 8.079613 24.102320 7.952912 -0.118430 -12.874158 5.131687 -9.095300 1.057865 0.000006 -0.000000 0.000000 0.000000 0.000000 -4.919162 -0.262750 0.768060 -0.051161 -8.808442 -8.771518 25.022302 -7.499251 2.605345 -17.966121 -8.158924 7.297318 -1.472365 0.000006 0.000004 0.000000 0.000000 0.000000 -4.919162 -0.262750 0.768060 4.212922 2.421143 -2.035669 0.853396 0.731221 -0.162388 0.000000 0.000000 0.000000 0.000000 0.000000 0.000000 0.853783 0.725643 -0.168855 2.408679 -0.981840 0.156931 18.564657 -9.531853 1.114007 0.000000 0.000000 0.000000 0.853783 0.725643 -0.168855 2.733643 -4.642495 -12.331555 0.000000 0.000000 0.000000 -5.812751 -7.144119 -60.813655 0.000007 -13.796086 0.000016 0.000000 0.000000 0.000000 0.853783 0.725643 -0.168855 2.006191 2.285596 14.907583 0.000000 0.000000 0.000000 -4.196580 9.036012 62.436535 -0.000003 14.723549 -0.000006 0.000000 0.000000 0.000000 
-0.117066 33.702713 -1.225334 0.000000 0.000000 0.000000 -5.283890 0.530547 0.920599 -5.780217 7.183787 8.120793 24.635739 7.980637 -0.043675 -12.993936 4.362878 -9.117692 1.053753 -0.000002 0.000001 0.000000 0.000000 0.000000 -5.283890 0.530547 0.920599 0.281095 -8.882072 -8.560283 25.426113 -7.530084 2.462830 -18.310139 -8.930605 7.202020 -1.480968 0.000018 -0.000001 0.000000 0.000000 0.000000 -5.283890 0.530547 0.920599 4.456053 2.639512 -1.908436 0.923716 0.790729 -0.117401 0.000000 0.000000 0.000000 0.000000 0.000000 0.000000 0.924696 0.784239 -0.124910 2.332534 -1.065885 0.161657 18.398156 -10.383288 1.385004 0.000000 0.000000 0.000000 0.924696 0.784239 -0.124910 2.737248 -4.718415 -12.320247 0.000000 0.000000 0.000000 -5.287595 -5.423510 -60.921019 -0.000004 -12.198450 0.000001 0.000000 0.000000 0.000000 0.924696 0.784239 -0.124910 2.023499 2.578336 14.945072 0.000000 0.000000 0.000000 -4.714582 9.925552 61.913138 -0.000017 16.716307 0.000026 0.000000 0.000000 0.000000 
-0.178202 33.689846 -1.349767 0.000000 0.000000 0.000000 -5.652227 1.402978 1.100478 -6.265464 7.045851 8.149053 25.089698 8.013419 -0.005360 -13.095717 3.493010 -9.111681 1.049624 0.000003 0.000003 0.000000 0.000000 0.000000 -5.652227 1.402978 1.100478 0.709233 -8.956291 -8.318859 25.764099 -7.583632 2.276276 -18.691028 -9.757266 7.138290 -1.489583 0.000011 -0.000001 0.000000 0.000000 0.000000 -5.652227 1.402978 1.100478 4.649084 2.811558 -1.863267 0.992002 0.839698 -0.075052 0.000000 0.000000 0.000000 0.000000 0.000000 0.000000 0.993615 0.832067 -0.083521 2.288248 -1.143353 0.176764 18.313810 -11.182956 1.643886 0.000000 0.000000 0.000000 0.993615 0.832067 -0.083521 2.742451 -4.872852 -12.285441 0.000000 0.000000 0.000000 -4.548088 -3.749253 -61.020008 0.000001 -10.805860 -0.000002 0.000000 0.000000 0.000000 0.993615 0.832067 -0.083521 2.038436 2.739629 14.984716 0.000000 0.000000 0.000000 -5.032147 10.813848 61.476094 0.000004 18.846138 -0.000016 0.000000 0.000000 0.000000 
-0.233366 33.672478 -1.464733 0.000000 0.000000 0.000000 -6.047582 2.251641 1.254121 -6.744729 6.929149 8.198519 25.743953 8.048564 0.048553 -13.503702 2.640556 -9.135000 1.045508 -0.000002 -0.000003 0.000000 0.000000 0.000000 -6.047582 2.251641 1.254121 1.196540 -9.008745 -8.025471 26.165372 -7.645389 2.086754 -19.336622 -10.561301 7.054227 -1.498200 -0.000006 0.000002 0.000000 0.000000 0.000000 -6.047582 2.251641 1.254121 4.827310 2.991588 -1.827090 1.052155 0.891348 -0.027667 0.000000 0.000000 0.000000 0.000000 0.000000 0.000000 1.054530 0.882472 -0.037071 2.273632 -1.219476 0.192163 18.312021 -11.982499 1.935005 0.000000 0.000000 0.000000 1.054530 0.882472 -0.037071 2.741625 -5.033701 -12.215053 0.000000 0.000000 0.000000 -3.657236 -2.104776 -61.186761 0.000000 -9.722044 -0.000030 0.000000 0.000000 0.000000 1.054530 0.882472 -0.037071 2.049379 2.848676 15.014245 0.000000 0.000000 0.000000 -5.285023 11.591768 61.149447 0.000011 20.793468 -0.000017 0.000000 0.000000 0.000000 
-0.280918 33.654366 -1.568132 0.000000 0.000000 0.000000 -6.416167 2.985648 1.400380 -7.140567 6.828459 8.191302 26.402807 7.685377 0.055383 -14.079264 2.366900 -8.993559 1.041399 -0.000002 0.000003 0.000000 0.000000 0.000000 -6.416167 2.985648 1.400380 1.606736 -9.046198 -7.773589 26.544355 -7.706046 1.917301 -19.869739 -11.255360 6.984507 -1.506826 0.000014 0.000001 0.000000 0.000000 0.000000 -6.416167 2.985648 1.400380 4.958290 3.185387 -1.791422 1.094368 0.945982 0.004707 0.000000 0.000000 0.000000 0.000000 0.000000 0.000000 1.097402 0.936196 -0.005604 2.273663 -1.291405 0.213040 18.362885 -12.691390 2.256231 0.000000 0.000000 0.000000 1.097402 0.936196 -0.005604 2.723393 -5.075638 -12.095936 0.000000 0.000000 0.000000 -2.634071 -0.570664 -61.406194 -0.000001 -8.971687 -0.000024 0.000000 0.000000 0.000000 1.097402 0.936196 -0.005604 2.069440 2.984868 15.073755 0.000000 0.000000 0.000000 -5.465365 12.382759 60.828224 0.000007 22.487351 -0.000017 0.000000 0.000000 0.000000 
-0.321843 33.641224 -1.660645 0.000000 0.000000 0.000000 -6.673085 3.585928 1.533289 -7.485262 6.742359 8.158366 26.968775 7.232410 0.049729 -14.729790 2.366015 -8.819740 1.037276 0.000001 0.000002 0.000000 0.000000 0.000000 -6.673085 3.585928 1.533289 1.858918 -9.087959 -7.605598 26.828182 -7.744593 1.817335 -20.183790 -11.811616 6.911605 -1.515428 0.000017 -0.000002 0.000000 0.000000 0.000000 -6.673085 3.585928 1.533289 4.990207 3.408456 -1.776858 1.112926 1.009143 0.029000 0.000000 0.000000 0.000000 0.000000 0.000000 0.000000 1.116627 0.998662 0.017856 2.267646 -1.356117 0.234406 18.435715 -13.293159 2.534850 0.000000 0.000000 0.000000 1.116627 0.998662 0.017856 2.702038 -5.105176 -11.970327 0.000000 0.000000 0.000000 -1.465499 0.828622 -61.648960 0.000009 -8.652068 0.000008 0.000000 0.000000 0.000000 1.116627 0.998662 0.017856 2.092283 3.142350 15.140743 0.000000 0.000000 0.000000 -5.613147 13.102249 60.546635 0.000001 23.929814 0.000007 0.000000 0.000000 0.000000 
-0.359887 33.639572 -1.745946 0.000000 0.000000 0.000000 -6.890272 4.059120 1.666029 -7.677835 6.686051 8.107949 27.341768 6.896176 0.055640 -15.400897 2.379848 -8.696479 1.033164 -0.000006 -0.000001 0.000000 0.000000 0.000000 -6.890272 4.059120 1.666029 2.070496 -9.120295 -7.518466 26.878492 -7.761200 1.751710 -20.084731 -12.274741 6.873414 -1.524057 0.000001 0.000003 0.000000 0.000000 0.000000 -6.890272 4.059120 1.666029 5.021487 3.686478 -1.805655 1.130904 1.089238 0.055735 0.000000 0.000000 0.000000 0.000000 0.000000 0.000000 1.135502 1.077776 0.043591 2.234517 -1.417704 0.249046 18.431826 -13.880983 2.812672 0.000000 0.000000 0.000000 1.135502 1.077776 0.043591 2.684954 -5.147451 -11.870796 0.000000 0.000000 0.000000 -0.200424 1.919707 -61.880373 0.000008 -8.732665 -0.000006 0.000000 0.000000 0.000000 1.135502 1.077776 0.043591 2.106930 3.300718 15.177917 0.000000 0.000000 0.000000 -5.749879 13.603905 60.376926 0.000006 25.234776 -0.000020 0.000000 0.000000 0.000000 
